<?xml version="1.0" encoding="utf-8"?>
<!-- Generator: Adobe Illustrator 15.0.2, SVG Export Plug-In  -->
<!DOCTYPE svg PUBLIC "-//W3C//DTD SVG 1.1//EN" "http://www.w3.org/Graphics/SVG/1.1/DTD/svg11.dtd" [
	<!ENTITY ns_flows "http://ns.adobe.com/Flows/1.0/">
]>
<svg version="1.1"
	 xmlns="http://www.w3.org/2000/svg" xmlns:xlink="http://www.w3.org/1999/xlink" xmlns:a="http://ns.adobe.com/AdobeSVGViewerExtensions/3.0/"
	 x="0px" y="0px" width="39px" height="16px" viewBox="0 0 39 16" overflow="visible" enable-background="new 0 0 39 16"
	 xml:space="preserve">
<defs>
</defs>
<g>
	<defs>
		<rect id="SVGID_2_" x="23" width="15.999" height="16"/>
	</defs>
	<clipPath id="SVGID_3_">
		<use xlink:href="#SVGID_2_"  overflow="visible"/>
	</clipPath>
	<path clip-path="url(#SVGID_3_)" d="M37.734,1.402c-3.729-0.665-6.29,0.516-6.57,0.653c-0.075,0.036-0.141,0.083-0.201,0.136
		c-0.059-0.054-0.126-0.1-0.201-0.137c-0.279-0.137-2.843-1.318-6.569-0.653c-0.438,0.078-0.698,0.39-0.698,0.836v8.124
		c0,0.257,0.076,0.458,0.227,0.597c0.101,0.092,0.28,0.197,0.562,0.174c3.312-0.19,5.898,0.637,6.384,0.805
		c0.097,0.034,0.197,0.053,0.297,0.053c0.099,0,0.199-0.019,0.295-0.052c0.484-0.168,3.068-0.994,6.377-0.806
		c0.289,0.024,0.469-0.081,0.568-0.173c0.149-0.139,0.227-0.339,0.227-0.597V2.855v-0.31V2.238
		C38.431,1.792,38.171,1.479,37.734,1.402 M30.661,11.296c-0.822-0.262-3.315-0.949-6.42-0.769
		c-0.083,0.006-0.107-0.015-0.109-0.017c-0.012-0.01-0.032-0.054-0.032-0.15V2.238c0-0.152,0.053-0.215,0.199-0.241
		c3.538-0.631,5.937,0.473,6.198,0.601c0.143,0.07,0.164,0.226,0.164,0.313V11.296 M37.827,10.359c0,0.097-0.021,0.141-0.032,0.15
		c-0.003,0.002-0.027,0.022-0.116,0.017c-3.101-0.18-5.591,0.507-6.413,0.77V2.911c0-0.087,0.021-0.244,0.164-0.313
		c0.264-0.128,2.66-1.232,6.199-0.601c0.147,0.026,0.199,0.089,0.199,0.241v0.307v0.31L37.827,10.359z"/>
</g>
<g>
	<defs>
		<rect id="SVGID_1_" x="23" y="1" width="15.999" height="15"/>
	</defs>
	<clipPath id="SVGID_4_">
		<use xlink:href="#SVGID_1_"  overflow="visible"/>
	</clipPath>
	<path clip-path="url(#SVGID_4_)" d="M38.156,14.572c-3.538-0.319-6.339,0.538-7.113,0.809c-0.053,0.021-0.107,0.021-0.161,0
		c-0.773-0.27-3.575-1.128-7.113-0.809c-0.166,0.015-0.288,0.162-0.273,0.328s0.158,0.29,0.328,0.272
		c3.417-0.308,6.113,0.52,6.858,0.778C30.775,15.984,30.869,16,30.963,16s0.188-0.016,0.28-0.048
		c0.745-0.261,3.44-1.086,6.857-0.778c0.171,0.019,0.313-0.105,0.328-0.272C38.445,14.734,38.322,14.587,38.156,14.572"/>
	<path clip-path="url(#SVGID_4_)" d="M38.156,13.062c-3.521-0.315-6.321,0.534-7.097,0.805c-0.063,0.021-0.13,0.021-0.194,0
		c-0.774-0.271-3.575-1.12-7.096-0.805c-0.166,0.017-0.288,0.162-0.273,0.328s0.158,0.289,0.328,0.274
		c3.399-0.306,6.097,0.513,6.843,0.771c0.097,0.034,0.197,0.053,0.297,0.053c0.101,0,0.199-0.019,0.296-0.052
		c0.746-0.259,3.442-1.076,6.843-0.771c0.171,0.015,0.313-0.108,0.328-0.274C38.445,13.224,38.322,13.077,38.156,13.062"/>
</g>
<rect fill="#FFFFFF" width="23" height="16"/>
</svg>
